<mxfile host="app.diagrams.net" modified="2023-08-13T21:52:47.925Z" agent="Mozilla/5.0 (Windows NT 10.0; Win64; x64) AppleWebKit/537.36 (KHTML, like Gecko) Chrome/115.0.0.0 Safari/537.36 Edg/115.0.1901.203" etag="BMLzlbBfLFCz1mrXNA0A" version="21.6.8" type="github">
  <diagram name="Page-1" id="DPcSFrDYuzaoLawTqGh5">
    <mxGraphModel dx="1050" dy="549" grid="1" gridSize="10" guides="1" tooltips="1" connect="1" arrows="1" fold="1" page="1" pageScale="1" pageWidth="850" pageHeight="1100" math="0" shadow="0">
      <root>
        <mxCell id="0" />
        <mxCell id="1" parent="0" />
        <mxCell id="KDcMeP7Lb1VqxSVFFUeO-3" value="Login or sign up" style="rounded=0;whiteSpace=wrap;html=1;" vertex="1" parent="1">
          <mxGeometry x="30" y="50" width="210" height="410" as="geometry" />
        </mxCell>
        <mxCell id="KDcMeP7Lb1VqxSVFFUeO-4" value="Photo" style="rounded=0;whiteSpace=wrap;html=1;" vertex="1" parent="1">
          <mxGeometry x="37.5" y="60" width="195" height="180" as="geometry" />
        </mxCell>
        <mxCell id="KDcMeP7Lb1VqxSVFFUeO-5" value="" style="endArrow=none;html=1;rounded=0;" edge="1" parent="1">
          <mxGeometry width="50" height="50" relative="1" as="geometry">
            <mxPoint x="182.5" y="254.5" as="sourcePoint" />
            <mxPoint x="222.5" y="255" as="targetPoint" />
            <Array as="points">
              <mxPoint x="232.5" y="254.5" />
            </Array>
          </mxGeometry>
        </mxCell>
        <mxCell id="KDcMeP7Lb1VqxSVFFUeO-6" value="" style="endArrow=none;html=1;rounded=0;" edge="1" parent="1">
          <mxGeometry width="50" height="50" relative="1" as="geometry">
            <mxPoint x="37.5" y="254.5" as="sourcePoint" />
            <mxPoint x="77.5" y="255" as="targetPoint" />
            <Array as="points">
              <mxPoint x="87.5" y="254.5" />
            </Array>
          </mxGeometry>
        </mxCell>
        <mxCell id="KDcMeP7Lb1VqxSVFFUeO-9" value="Email" style="text;html=1;strokeColor=none;fillColor=none;align=center;verticalAlign=middle;whiteSpace=wrap;rounded=0;" vertex="1" parent="1">
          <mxGeometry x="37.5" y="260" width="60" height="30" as="geometry" />
        </mxCell>
        <mxCell id="KDcMeP7Lb1VqxSVFFUeO-10" style="edgeStyle=orthogonalEdgeStyle;rounded=0;orthogonalLoop=1;jettySize=auto;html=1;exitX=0.5;exitY=1;exitDx=0;exitDy=0;" edge="1" parent="1" source="KDcMeP7Lb1VqxSVFFUeO-9" target="KDcMeP7Lb1VqxSVFFUeO-9">
          <mxGeometry relative="1" as="geometry" />
        </mxCell>
        <mxCell id="KDcMeP7Lb1VqxSVFFUeO-11" value="" style="rounded=1;whiteSpace=wrap;html=1;" vertex="1" parent="1">
          <mxGeometry x="50" y="290" width="170" height="20" as="geometry" />
        </mxCell>
        <mxCell id="KDcMeP7Lb1VqxSVFFUeO-12" value="Password" style="text;html=1;strokeColor=none;fillColor=none;align=center;verticalAlign=middle;whiteSpace=wrap;rounded=0;" vertex="1" parent="1">
          <mxGeometry x="50" y="310" width="60" height="30" as="geometry" />
        </mxCell>
        <mxCell id="KDcMeP7Lb1VqxSVFFUeO-13" value="" style="rounded=1;whiteSpace=wrap;html=1;" vertex="1" parent="1">
          <mxGeometry x="50" y="340" width="170" height="20" as="geometry" />
        </mxCell>
        <mxCell id="KDcMeP7Lb1VqxSVFFUeO-14" value="Sign Up" style="rounded=1;whiteSpace=wrap;html=1;fillColor=#fad7ac;strokeColor=#b46504;" vertex="1" parent="1">
          <mxGeometry x="87.5" y="420" width="92.5" height="30" as="geometry" />
        </mxCell>
        <mxCell id="KDcMeP7Lb1VqxSVFFUeO-15" value="Login" style="rounded=1;whiteSpace=wrap;html=1;" vertex="1" parent="1">
          <mxGeometry x="85" y="370" width="95" height="20" as="geometry" />
        </mxCell>
        <mxCell id="KDcMeP7Lb1VqxSVFFUeO-17" value="or" style="text;html=1;strokeColor=none;fillColor=none;align=center;verticalAlign=middle;whiteSpace=wrap;rounded=0;" vertex="1" parent="1">
          <mxGeometry x="105" y="390" width="60" height="30" as="geometry" />
        </mxCell>
        <mxCell id="KDcMeP7Lb1VqxSVFFUeO-20" value="" style="endArrow=none;html=1;rounded=0;" edge="1" parent="1">
          <mxGeometry width="50" height="50" relative="1" as="geometry">
            <mxPoint x="150" y="404.5" as="sourcePoint" />
            <mxPoint x="200" y="404.5" as="targetPoint" />
            <Array as="points">
              <mxPoint x="230" y="405" />
            </Array>
          </mxGeometry>
        </mxCell>
        <mxCell id="KDcMeP7Lb1VqxSVFFUeO-21" value="" style="endArrow=none;html=1;rounded=0;" edge="1" parent="1">
          <mxGeometry width="50" height="50" relative="1" as="geometry">
            <mxPoint x="40" y="404.5" as="sourcePoint" />
            <mxPoint x="90" y="404.5" as="targetPoint" />
            <Array as="points">
              <mxPoint x="120" y="405" />
            </Array>
          </mxGeometry>
        </mxCell>
        <mxCell id="KDcMeP7Lb1VqxSVFFUeO-22" value="" style="rounded=0;whiteSpace=wrap;html=1;" vertex="1" parent="1">
          <mxGeometry x="300" y="50" width="210" height="410" as="geometry" />
        </mxCell>
        <mxCell id="KDcMeP7Lb1VqxSVFFUeO-28" value="&lt;h1&gt;Registration&lt;/h1&gt;" style="rounded=1;whiteSpace=wrap;html=1;strokeColor=none;" vertex="1" parent="1">
          <mxGeometry x="320" y="60" width="170" height="30" as="geometry" />
        </mxCell>
        <mxCell id="KDcMeP7Lb1VqxSVFFUeO-29" value="Name" style="text;html=1;strokeColor=none;fillColor=none;align=center;verticalAlign=middle;whiteSpace=wrap;rounded=0;" vertex="1" parent="1">
          <mxGeometry x="300" y="120" width="60" height="30" as="geometry" />
        </mxCell>
        <mxCell id="KDcMeP7Lb1VqxSVFFUeO-31" value="" style="rounded=1;whiteSpace=wrap;html=1;" vertex="1" parent="1">
          <mxGeometry x="370" y="125" width="130" height="20" as="geometry" />
        </mxCell>
        <mxCell id="KDcMeP7Lb1VqxSVFFUeO-33" value="Email" style="text;html=1;strokeColor=none;fillColor=none;align=center;verticalAlign=middle;whiteSpace=wrap;rounded=0;" vertex="1" parent="1">
          <mxGeometry x="300" y="160" width="60" height="30" as="geometry" />
        </mxCell>
        <mxCell id="KDcMeP7Lb1VqxSVFFUeO-34" value="" style="rounded=1;whiteSpace=wrap;html=1;" vertex="1" parent="1">
          <mxGeometry x="370" y="165" width="130" height="20" as="geometry" />
        </mxCell>
        <mxCell id="KDcMeP7Lb1VqxSVFFUeO-35" value="Password" style="text;html=1;strokeColor=none;fillColor=none;align=center;verticalAlign=middle;whiteSpace=wrap;rounded=0;" vertex="1" parent="1">
          <mxGeometry x="300" y="200" width="60" height="30" as="geometry" />
        </mxCell>
        <mxCell id="KDcMeP7Lb1VqxSVFFUeO-36" value="" style="rounded=1;whiteSpace=wrap;html=1;" vertex="1" parent="1">
          <mxGeometry x="370" y="205" width="130" height="20" as="geometry" />
        </mxCell>
        <mxCell id="KDcMeP7Lb1VqxSVFFUeO-37" value="Phone" style="text;html=1;strokeColor=none;fillColor=none;align=center;verticalAlign=middle;whiteSpace=wrap;rounded=0;" vertex="1" parent="1">
          <mxGeometry x="300" y="240" width="60" height="30" as="geometry" />
        </mxCell>
        <mxCell id="KDcMeP7Lb1VqxSVFFUeO-38" value="" style="rounded=1;whiteSpace=wrap;html=1;" vertex="1" parent="1">
          <mxGeometry x="370" y="245" width="130" height="20" as="geometry" />
        </mxCell>
        <mxCell id="KDcMeP7Lb1VqxSVFFUeO-40" value="Address" style="text;html=1;strokeColor=none;fillColor=none;align=center;verticalAlign=middle;whiteSpace=wrap;rounded=0;" vertex="1" parent="1">
          <mxGeometry x="300" y="285" width="60" height="30" as="geometry" />
        </mxCell>
        <mxCell id="KDcMeP7Lb1VqxSVFFUeO-41" value="" style="rounded=1;whiteSpace=wrap;html=1;" vertex="1" parent="1">
          <mxGeometry x="370" y="290" width="130" height="20" as="geometry" />
        </mxCell>
        <mxCell id="KDcMeP7Lb1VqxSVFFUeO-43" value="Register" style="rounded=1;whiteSpace=wrap;html=1;fillColor=#fad7ac;strokeColor=#b46504;" vertex="1" parent="1">
          <mxGeometry x="345" y="360" width="120" height="40" as="geometry" />
        </mxCell>
        <mxCell id="KDcMeP7Lb1VqxSVFFUeO-44" value="" style="rounded=0;whiteSpace=wrap;html=1;" vertex="1" parent="1">
          <mxGeometry x="572.5" y="50" width="210" height="410" as="geometry" />
        </mxCell>
        <mxCell id="KDcMeP7Lb1VqxSVFFUeO-46" value="&lt;h1&gt;Categories&lt;/h1&gt;" style="rounded=1;whiteSpace=wrap;html=1;strokeColor=none;" vertex="1" parent="1">
          <mxGeometry x="590" y="60" width="170" height="30" as="geometry" />
        </mxCell>
        <mxCell id="KDcMeP7Lb1VqxSVFFUeO-53" value="Category 1" style="shape=tape;whiteSpace=wrap;html=1;" vertex="1" parent="1">
          <mxGeometry x="595" y="105" width="165" height="45" as="geometry" />
        </mxCell>
        <mxCell id="KDcMeP7Lb1VqxSVFFUeO-54" value="Category 2" style="shape=tape;whiteSpace=wrap;html=1;" vertex="1" parent="1">
          <mxGeometry x="595" y="152.5" width="165" height="45" as="geometry" />
        </mxCell>
        <mxCell id="KDcMeP7Lb1VqxSVFFUeO-55" value="Category 3" style="shape=tape;whiteSpace=wrap;html=1;" vertex="1" parent="1">
          <mxGeometry x="595" y="200" width="165" height="45" as="geometry" />
        </mxCell>
        <mxCell id="KDcMeP7Lb1VqxSVFFUeO-56" value="Category 4" style="shape=tape;whiteSpace=wrap;html=1;" vertex="1" parent="1">
          <mxGeometry x="595" y="252.5" width="165" height="45" as="geometry" />
        </mxCell>
        <mxCell id="KDcMeP7Lb1VqxSVFFUeO-57" value="Category 5" style="shape=tape;whiteSpace=wrap;html=1;" vertex="1" parent="1">
          <mxGeometry x="595" y="302.5" width="165" height="45" as="geometry" />
        </mxCell>
        <mxCell id="KDcMeP7Lb1VqxSVFFUeO-58" value="Category 6" style="shape=tape;whiteSpace=wrap;html=1;" vertex="1" parent="1">
          <mxGeometry x="595" y="355" width="165" height="45" as="geometry" />
        </mxCell>
        <mxCell id="KDcMeP7Lb1VqxSVFFUeO-61" value="" style="rounded=0;whiteSpace=wrap;html=1;" vertex="1" parent="1">
          <mxGeometry x="30" y="480" width="210" height="410" as="geometry" />
        </mxCell>
        <mxCell id="KDcMeP7Lb1VqxSVFFUeO-62" value="&lt;h1&gt;Category x&lt;/h1&gt;" style="rounded=1;whiteSpace=wrap;html=1;strokeColor=none;" vertex="1" parent="1">
          <mxGeometry x="50" y="500" width="170" height="30" as="geometry" />
        </mxCell>
        <mxCell id="KDcMeP7Lb1VqxSVFFUeO-65" value="&lt;font style=&quot;font-size: 16px;&quot;&gt;Item 1&lt;/font&gt;" style="text;html=1;strokeColor=none;fillColor=none;align=center;verticalAlign=middle;whiteSpace=wrap;rounded=0;" vertex="1" parent="1">
          <mxGeometry x="40" y="550" width="80" height="30" as="geometry" />
        </mxCell>
        <mxCell id="KDcMeP7Lb1VqxSVFFUeO-66" value="Add to order" style="rounded=1;whiteSpace=wrap;html=1;" vertex="1" parent="1">
          <mxGeometry x="135" y="555" width="90" height="20" as="geometry" />
        </mxCell>
        <mxCell id="KDcMeP7Lb1VqxSVFFUeO-67" value="&lt;font style=&quot;font-size: 16px;&quot;&gt;Item 2&lt;/font&gt;" style="text;html=1;strokeColor=none;fillColor=none;align=center;verticalAlign=middle;whiteSpace=wrap;rounded=0;" vertex="1" parent="1">
          <mxGeometry x="40" y="580" width="80" height="30" as="geometry" />
        </mxCell>
        <mxCell id="KDcMeP7Lb1VqxSVFFUeO-68" value="Add to order" style="rounded=1;whiteSpace=wrap;html=1;" vertex="1" parent="1">
          <mxGeometry x="135" y="585" width="90" height="20" as="geometry" />
        </mxCell>
        <mxCell id="KDcMeP7Lb1VqxSVFFUeO-69" value="&lt;font style=&quot;font-size: 16px;&quot;&gt;Item 3&lt;/font&gt;" style="text;html=1;strokeColor=none;fillColor=none;align=center;verticalAlign=middle;whiteSpace=wrap;rounded=0;" vertex="1" parent="1">
          <mxGeometry x="40" y="615" width="80" height="30" as="geometry" />
        </mxCell>
        <mxCell id="KDcMeP7Lb1VqxSVFFUeO-70" value="Add to order" style="rounded=1;whiteSpace=wrap;html=1;" vertex="1" parent="1">
          <mxGeometry x="135" y="615" width="90" height="20" as="geometry" />
        </mxCell>
        <mxCell id="KDcMeP7Lb1VqxSVFFUeO-71" value="&lt;font style=&quot;font-size: 16px;&quot;&gt;Item 4&lt;/font&gt;" style="text;html=1;strokeColor=none;fillColor=none;align=center;verticalAlign=middle;whiteSpace=wrap;rounded=0;" vertex="1" parent="1">
          <mxGeometry x="37.5" y="645" width="80" height="30" as="geometry" />
        </mxCell>
        <mxCell id="KDcMeP7Lb1VqxSVFFUeO-72" value="Add to order" style="rounded=1;whiteSpace=wrap;html=1;" vertex="1" parent="1">
          <mxGeometry x="135" y="650" width="90" height="20" as="geometry" />
        </mxCell>
        <mxCell id="KDcMeP7Lb1VqxSVFFUeO-73" value="&lt;font style=&quot;font-size: 16px;&quot;&gt;Item 5&lt;/font&gt;" style="text;html=1;strokeColor=none;fillColor=none;align=center;verticalAlign=middle;whiteSpace=wrap;rounded=0;" vertex="1" parent="1">
          <mxGeometry x="40" y="675" width="80" height="30" as="geometry" />
        </mxCell>
        <mxCell id="KDcMeP7Lb1VqxSVFFUeO-74" value="Add to order" style="rounded=1;whiteSpace=wrap;html=1;" vertex="1" parent="1">
          <mxGeometry x="135" y="680" width="90" height="20" as="geometry" />
        </mxCell>
        <mxCell id="KDcMeP7Lb1VqxSVFFUeO-75" value="&lt;font style=&quot;font-size: 16px;&quot;&gt;Item 6&lt;/font&gt;" style="text;html=1;strokeColor=none;fillColor=none;align=center;verticalAlign=middle;whiteSpace=wrap;rounded=0;" vertex="1" parent="1">
          <mxGeometry x="40" y="710" width="80" height="30" as="geometry" />
        </mxCell>
        <mxCell id="KDcMeP7Lb1VqxSVFFUeO-76" value="Add to order" style="rounded=1;whiteSpace=wrap;html=1;" vertex="1" parent="1">
          <mxGeometry x="135" y="710" width="90" height="20" as="geometry" />
        </mxCell>
        <mxCell id="KDcMeP7Lb1VqxSVFFUeO-77" value="&lt;font style=&quot;font-size: 16px;&quot;&gt;Item 7&lt;/font&gt;" style="text;html=1;strokeColor=none;fillColor=none;align=center;verticalAlign=middle;whiteSpace=wrap;rounded=0;" vertex="1" parent="1">
          <mxGeometry x="40" y="740" width="80" height="30" as="geometry" />
        </mxCell>
        <mxCell id="KDcMeP7Lb1VqxSVFFUeO-78" value="Add to order" style="rounded=1;whiteSpace=wrap;html=1;" vertex="1" parent="1">
          <mxGeometry x="135" y="740" width="90" height="20" as="geometry" />
        </mxCell>
        <mxCell id="KDcMeP7Lb1VqxSVFFUeO-79" value="&lt;font style=&quot;font-size: 16px;&quot;&gt;Item 8&lt;/font&gt;" style="text;html=1;strokeColor=none;fillColor=none;align=center;verticalAlign=middle;whiteSpace=wrap;rounded=0;" vertex="1" parent="1">
          <mxGeometry x="40" y="770" width="80" height="30" as="geometry" />
        </mxCell>
        <mxCell id="KDcMeP7Lb1VqxSVFFUeO-80" value="Add to order" style="rounded=1;whiteSpace=wrap;html=1;" vertex="1" parent="1">
          <mxGeometry x="135" y="775" width="90" height="20" as="geometry" />
        </mxCell>
        <mxCell id="KDcMeP7Lb1VqxSVFFUeO-86" value="&lt;font style=&quot;font-size: 16px;&quot;&gt;Item 9&lt;/font&gt;" style="text;html=1;strokeColor=none;fillColor=none;align=center;verticalAlign=middle;whiteSpace=wrap;rounded=0;" vertex="1" parent="1">
          <mxGeometry x="41.25" y="800" width="80" height="30" as="geometry" />
        </mxCell>
        <mxCell id="KDcMeP7Lb1VqxSVFFUeO-87" value="Add to order" style="rounded=1;whiteSpace=wrap;html=1;" vertex="1" parent="1">
          <mxGeometry x="136.25" y="805" width="90" height="20" as="geometry" />
        </mxCell>
        <mxCell id="KDcMeP7Lb1VqxSVFFUeO-88" value="&lt;font style=&quot;font-size: 16px;&quot;&gt;Item 10&lt;/font&gt;" style="text;html=1;strokeColor=none;fillColor=none;align=center;verticalAlign=middle;whiteSpace=wrap;rounded=0;" vertex="1" parent="1">
          <mxGeometry x="42.5" y="830" width="80" height="30" as="geometry" />
        </mxCell>
        <mxCell id="KDcMeP7Lb1VqxSVFFUeO-89" value="Add to order" style="rounded=1;whiteSpace=wrap;html=1;" vertex="1" parent="1">
          <mxGeometry x="137.5" y="835" width="90" height="20" as="geometry" />
        </mxCell>
      </root>
    </mxGraphModel>
  </diagram>
</mxfile>
